<svg id="Dark" xmlns="http://www.w3.org/2000/svg" viewBox="0 0 370.45 188.13"><defs><style>.cls-1{font-size:100px;}.cls-1,.cls-4{fill:#fff;font-family:MicrosoftYaHeiUI, Microsoft YaHei UI;}.cls-2{letter-spacing:-0.05em;}.cls-3{fill:none;stroke:#fff;stroke-miterlimit:10;stroke-width:10px;}.cls-4{font-size:36px;}</style></defs><text class="cls-1" transform="translate(9.7 133.74)">PH<tspan class="cls-2" x="138.53" y="0">OT</tspan><tspan x="267.68" y="0">O</tspan></text><path class="cls-3" d="M133.2,53.55c.12-7,1.33-16.57,6.75-24,7.12-9.72,16.74-9.24,55.2-8.87,36.9.36,46.42.1,53.2,9.79,5.25,7.5,6.12,17.06,6.06,23.74"/><path class="cls-3" d="M254.42,140.06c-.18,7-1.87,16.57-9.5,24-10,9.72-23.5,9.25-77.51,8.87-51.82-.36-65.2-.1-74.72-9.78-7.37-7.5-8.59-17.07-8.51-23.75"/><text class="cls-4" transform="translate(81.21 48.27)">RE</text></svg>